<svg width="32" height="33" viewBox="0 0 32 33" fill="none" xmlns="http://www.w3.org/2000/svg">
<path fill-rule="evenodd" clip-rule="evenodd" d="M16.0649 3.83861C8.90937 3.83861 3.10866 9.63932 3.10866 16.7949C3.10866 23.9505 8.90937 29.7511 16.0649 29.7511C23.2205 29.7511 29.0212 23.9505 29.0212 16.7949C29.0212 9.63932 23.2205 3.83861 16.0649 3.83861ZM0.229492 16.7949C0.229492 8.0492 7.31925 0.959442 16.0649 0.959442C24.8105 0.959442 31.9003 8.0492 31.9003 16.7949C31.9003 25.5405 24.8105 32.6303 16.0649 32.6303C7.31925 32.6303 0.229492 25.5405 0.229492 16.7949ZM17.5045 13.9157V25.4324H14.6253V13.9157H17.5045ZM16.0649 11.7563C17.2575 11.7563 18.2243 10.7895 18.2243 9.59694C18.2243 8.40435 17.2575 7.43757 16.0649 7.43757C14.8724 7.43757 13.9055 8.40435 13.9055 9.59694C13.9055 10.7895 14.8724 11.7563 16.0649 11.7563Z" fill="white"/>
</svg>
